<?xml version="1.0" encoding="UTF-8"?>
<svg id="Layer_2" xmlns="http://www.w3.org/2000/svg" viewBox="0 0 632.13 494.45">
  <g id="Layer_1-2" data-name="Layer_1">
    <g>
      <path d="M146.9,0C65.77,0,0,110.69,0,247.23s65.77,247.23,146.9,247.23,146.9-110.69,146.9-247.23S228.03,0,146.9,0ZM146.9,467.43c-49.86,0-93.75-59.39-111.49-140.94,12.99,10.17,29.33,16.25,47.11,16.25,42.26,0,76.52-34.26,76.52-76.51s-34.26-76.52-76.52-76.52c-21,0-40.03,8.47-53.85,22.17C38.19,108.61,88.46,27.02,146.9,27.02c64.98,0,119.88,100.84,119.88,220.2s-54.9,220.2-119.88,220.2ZM41.9,237.74c0-13.49,10.94-24.43,24.43-24.43s24.43,10.94,24.43,24.43-10.94,24.43-24.43,24.43-24.43-10.94-24.43-24.43Z"/>
      <path d="M485.23,0c-81.13,0-146.9,110.69-146.9,247.23s65.77,247.23,146.9,247.23,146.9-110.69,146.9-247.23S566.36,0,485.23,0ZM485.23,467.43c-49.86,0-93.75-59.39-111.49-140.94,12.99,10.17,29.33,16.25,47.11,16.25,42.26,0,76.52-34.26,76.52-76.51s-34.26-76.52-76.52-76.52c-21,0-40.03,8.47-53.85,22.17,9.52-103.26,59.79-184.85,118.23-184.85,64.98,0,119.88,100.84,119.88,220.2s-54.9,220.2-119.88,220.2ZM380.23,237.74c0-13.49,10.94-24.43,24.43-24.43s24.43,10.94,24.43,24.43-10.94,24.43-24.43,24.43-24.43-10.94-24.43-24.43Z"/>
    </g>
  </g>
</svg>