<?xml version="1.0" encoding="UTF-8"?>
<svg id="Layer_2" data-name="Layer 2" xmlns="http://www.w3.org/2000/svg" viewBox="0 0 915.82 471.47">
  <defs>
    <style>
      .cls-1 {
        fill: #fdfdfe;
      }

      .cls-2 {
        fill: #f9f8fb;
      }

      .cls-3 {
        fill: #faf9fc;
      }

      .cls-4 {
        fill: #fcfafd;
      }

      .cls-5 {
        fill: #f2eff6;
      }

      .cls-6 {
        fill: #f4f1f8;
      }

      .cls-7 {
        fill: #ede8f2;
      }

      .cls-8 {
        fill: #f4f2f8;
      }

      .cls-9 {
        fill: #f3f0f7;
      }

      .cls-10 {
        fill: #ece6f1;
      }

      .cls-11 {
        fill: #efeaf3;
      }

      .cls-12 {
        fill: #fbfafc;
      }

      .cls-13 {
        fill: #f9f7fb;
      }

      .cls-14 {
        fill: #f0ecf4;
      }

      .cls-15 {
        fill: #fdfcfd;
      }

      .cls-16 {
        fill: #f6f3f8;
      }

      .cls-17 {
        fill: #f8f5fa;
      }

      .cls-18 {
        fill: #f0ecf5;
      }

      .cls-19 {
        fill: #faf8fb;
      }

      .cls-20 {
        fill: #f1eef5;
      }

      .cls-21 {
        fill: #fefeff;
      }

      .cls-22 {
        fill: #fcfcfd;
      }

      .cls-23 {
        fill: #eee9f3;
      }

      .cls-24 {
        fill: #fcfbfd;
      }

      .cls-25 {
        fill: #f7f4f9;
      }

      .cls-26 {
        fill: #ede7f2;
      }

      .cls-27 {
        fill: #fbf9fc;
      }

      .cls-28 {
        fill: #efebf4;
      }

      .cls-29 {
        fill: #fffeff;
      }

      .cls-30 {
        fill: #f4f0f7;
      }

      .cls-31 {
        fill: #f1edf5;
      }

      .cls-32 {
        fill: #f3eff7;
      }

      .cls-33 {
        fill: #ece7f1;
      }

      .cls-34 {
        fill: #fff;
      }

      .cls-35 {
        fill: #f7f5f9;
      }

      .cls-36 {
        fill: #f8f6fa;
      }

      .cls-37 {
        fill: #efeaf4;
      }

      .cls-38 {
        fill: #f5f2f8;
      }

      .cls-39 {
        fill: #fefefe;
      }

      .cls-40 {
        fill: #f6f4f9;
      }

      .cls-41 {
        fill: #f4f1f7;
      }

      .cls-42 {
        fill: #ede9f3;
      }

      .cls-43 {
        fill: #ede8f3;
      }

      .cls-44 {
        fill: #eeeaf3;
      }

      .cls-45 {
        fill: #f1eef6;
      }

      .cls-46 {
        fill: #ece7f2;
      }

      .cls-47 {
        fill: #fdfcfe;
      }

      .cls-48 {
        fill: #f6f3f9;
      }

      .cls-49 {
        fill: #f2eef6;
      }

      .cls-50 {
        fill: #f9f7fa;
      }

      .cls-51 {
        fill: #f7f5fa;
      }

      .cls-52 {
        fill: #f0ebf4;
      }

      .cls-53 {
        fill: #f3eff6;
      }

      .cls-54 {
        fill: #fefdfe;
      }

      .cls-55 {
        fill: #ebe6f1;
      }

      .cls-56 {
        fill: #f5f3f8;
      }
    </style>
  </defs>
  <g id="Layer_1-2" data-name="Layer 1">
    <g>
      <circle class="cls-55" cx="42.02" cy="72.83" r="31.32"/>
      <circle class="cls-55" cx="41.52" cy="74.65" r="31.31"/>
      <circle class="cls-55" cx="40.8" cy="77.4" r="31.3"/>
      <circle class="cls-55" cx="39.92" cy="81.02" r="31.29"/>
      <circle class="cls-10" cx="38.91" cy="85.49" r="31.27"/>
      <circle class="cls-10" cx="37.82" cy="90.75" r="31.26"/>
      <circle class="cls-10" cx="36.69" cy="96.76" r="31.25"/>
      <circle class="cls-10" cx="35.56" cy="103.48" r="31.24"/>
      <circle class="cls-33" cx="34.47" cy="110.88" r="31.23"/>
      <circle class="cls-46" cx="33.47" cy="118.9" r="31.22"/>
      <circle class="cls-46" cx="32.6" cy="127.5" r="31.2"/>
      <circle class="cls-46" cx="31.89" cy="136.66" r="31.19"/>
      <circle class="cls-46" cx="31.41" cy="146.31" r="31.18"/>
      <circle class="cls-46" cx="31.17" cy="156.42" r="31.17"/>
      <circle class="cls-46" cx="31.24" cy="166.96" r="31.16"/>
      <circle class="cls-26" cx="31.65" cy="177.86" r="31.15"/>
      <circle class="cls-26" cx="32.44" cy="189.11" r="31.14"/>
      <circle class="cls-7" cx="33.66" cy="200.64" r="31.13"/>
      <circle class="cls-7" cx="35.34" cy="212.43" r="31.12"/>
      <circle class="cls-7" cx="37.54" cy="224.43" r="31.11"/>
      <circle class="cls-7" cx="40.29" cy="236.59" r="31.1"/>
      <circle class="cls-7" cx="43.63" cy="248.88" r="31.09"/>
      <circle class="cls-7" cx="47.62" cy="261.25" r="31.08"/>
      <circle class="cls-7" cx="52.28" cy="273.67" r="31.07"/>
      <circle class="cls-7" cx="57.67" cy="286.08" r="31.06"/>
      <circle class="cls-43" cx="63.83" cy="298.45" r="31.05"/>
      <circle class="cls-42" cx="70.79" cy="310.74" r="31.04"/>
      <circle class="cls-23" cx="78.6" cy="322.9" r="31.03"/>
      <circle class="cls-23" cx="87.31" cy="334.89" r="31.02"/>
      <circle class="cls-23" cx="96.9" cy="346.61" r="31.01"/>
      <circle class="cls-23" cx="106.72" cy="357.32" r="31"/>
      <circle class="cls-23" cx="116.85" cy="367.19" r="30.99"/>
      <circle class="cls-23" cx="127.23" cy="376.26" r="30.99"/>
      <circle class="cls-23" cx="137.82" cy="384.56" r="30.98"/>
      <circle class="cls-23" cx="148.6" cy="392.13" r="30.97"/>
      <circle class="cls-44" cx="159.5" cy="399" r="30.96"/>
      <circle class="cls-44" cx="170.49" cy="405.21" r="30.95"/>
      <circle class="cls-44" cx="181.53" cy="410.77" r="30.95"/>
      <circle class="cls-44" cx="192.58" cy="415.74" r="30.94"/>
      <circle class="cls-11" cx="203.59" cy="420.14" r="30.93"/>
      <circle class="cls-11" cx="214.51" cy="424" r="30.92"/>
      <circle class="cls-37" cx="225.32" cy="427.36" r="30.92"/>
      <circle class="cls-37" cx="235.96" cy="430.25" r="30.91"/>
      <circle class="cls-37" cx="246.39" cy="432.7" r="30.9"/>
      <circle class="cls-28" cx="256.58" cy="434.76" r="30.89"/>
      <circle class="cls-28" cx="266.47" cy="436.44" r="30.89"/>
      <circle class="cls-28" cx="276.03" cy="437.78" r="30.88"/>
      <circle class="cls-28" cx="285.22" cy="438.82" r="30.87"/>
      <circle class="cls-28" cx="293.98" cy="439.59" r="30.87"/>
      <circle class="cls-28" cx="302.29" cy="440.12" r="30.86"/>
      <circle class="cls-52" cx="310.09" cy="440.45" r="30.85"/>
      <circle class="cls-52" cx="317.35" cy="440.61" r="30.85"/>
      <circle class="cls-52" cx="324.02" cy="440.62" r="30.84"/>
      <circle class="cls-14" cx="330.06" cy="440.53" r="30.84"/>
      <circle class="cls-14" cx="335.42" cy="440.37" r="30.83"/>
      <circle class="cls-14" cx="340.07" cy="440.17" r="30.83"/>
      <circle class="cls-18" cx="343.97" cy="439.96" r="30.82"/>
      <circle class="cls-18" cx="350.21" cy="439.57" r="30.82"/>
      <circle class="cls-18" cx="362.35" cy="438.47" r="30.81"/>
      <circle class="cls-18" cx="374.39" cy="436.92" r="30.81"/>
      <circle class="cls-18" cx="386.32" cy="434.94" r="30.8"/>
      <circle class="cls-18" cx="398.14" cy="432.54" r="30.8"/>
      <circle class="cls-31" cx="409.84" cy="429.74" r="30.79"/>
      <circle class="cls-31" cx="421.42" cy="426.55" r="30.79"/>
      <circle class="cls-31" cx="432.87" cy="422.99" r="30.78"/>
      <circle class="cls-31" cx="444.18" cy="419.06" r="30.78"/>
      <circle class="cls-31" cx="455.35" cy="414.79" r="30.77"/>
      <circle class="cls-31" cx="466.37" cy="410.19" r="30.77"/>
      <circle class="cls-31" cx="477.23" cy="405.27" r="30.77"/>
      <circle class="cls-31" cx="487.94" cy="400.04" r="30.76"/>
      <circle class="cls-31" cx="498.47" cy="394.53" r="30.76"/>
      <circle class="cls-20" cx="508.84" cy="388.75" r="30.76"/>
      <circle class="cls-45" cx="519.02" cy="382.7" r="30.75"/>
      <circle class="cls-49" cx="529.02" cy="376.41" r="30.75"/>
      <circle class="cls-49" cx="538.82" cy="369.88" r="30.75"/>
      <circle class="cls-49" cx="548.43" cy="363.14" r="30.74"/>
      <circle class="cls-49" cx="557.84" cy="356.2" r="30.74"/>
      <circle class="cls-49" cx="567.03" cy="349.07" r="30.74"/>
      <circle class="cls-49" cx="576.01" cy="341.76" r="30.74"/>
      <circle class="cls-5" cx="584.77" cy="334.3" r="30.74"/>
      <circle class="cls-5" cx="593.3" cy="326.69" r="30.73"/>
      <circle class="cls-5" cx="601.59" cy="318.95" r="30.73"/>
      <circle class="cls-5" cx="609.64" cy="311.09" r="30.73"/>
      <circle class="cls-5" cx="617.45" cy="303.13" r="30.73"/>
      <circle class="cls-53" cx="625.01" cy="295.08" r="30.73"/>
      <circle class="cls-53" cx="632.3" cy="286.96" r="30.72"/>
      <circle class="cls-53" cx="639.33" cy="278.78" r="30.72"/>
      <circle class="cls-32" cx="646.09" cy="270.56" r="30.72"/>
      <circle class="cls-9" cx="652.58" cy="262.3" r="30.72"/>
      <circle class="cls-9" cx="658.78" cy="254.03" r="30.72"/>
      <circle class="cls-9" cx="664.69" cy="245.76" r="30.72"/>
      <circle class="cls-9" cx="670.3" cy="237.5" r="30.72"/>
      <circle class="cls-9" cx="675.62" cy="229.26" r="30.72"/>
      <circle class="cls-9" cx="680.62" cy="221.07" r="30.72"/>
      <circle class="cls-9" cx="685.31" cy="212.93" r="30.72"/>
      <circle class="cls-30" cx="689.69" cy="204.86" r="30.72"/>
      <circle class="cls-30" cx="693.73" cy="196.88" r="30.72"/>
      <circle class="cls-41" cx="697.45" cy="188.99" r="30.72"/>
      <circle class="cls-41" cx="700.82" cy="181.22" r="30.72"/>
      <circle class="cls-41" cx="703.86" cy="173.58" r="30.72"/>
      <circle class="cls-41" cx="706.54" cy="166.07" r="30.72"/>
      <circle class="cls-41" cx="708.87" cy="158.72" r="30.72"/>
      <circle class="cls-6" cx="710.83" cy="151.55" r="30.72"/>
      <circle class="cls-6" cx="712.42" cy="144.55" r="30.72"/>
      <circle class="cls-6" cx="713.64" cy="137.76" r="30.72"/>
      <circle class="cls-8" cx="714.48" cy="131.18" r="30.72"/>
      <circle class="cls-38" cx="714.93" cy="124.82" r="30.73"/>
      <circle class="cls-38" cx="714.99" cy="118.71" r="30.73"/>
      <circle class="cls-38" cx="714.65" cy="112.86" r="30.73"/>
      <circle class="cls-38" cx="713.91" cy="107.27" r="30.73"/>
      <circle class="cls-38" cx="712.75" cy="101.97" r="30.73"/>
      <circle class="cls-38" cx="711.18" cy="96.97" r="30.74"/>
      <circle class="cls-38" cx="708.75" cy="91.42" r="30.74"/>
      <circle class="cls-56" cx="704.39" cy="84.05" r="30.74"/>
      <circle class="cls-56" cx="698.65" cy="76.48" r="30.74"/>
      <circle class="cls-56" cx="691.66" cy="69.14" r="30.74"/>
      <circle class="cls-16" cx="683.6" cy="62.46" r="30.75"/>
      <circle class="cls-48" cx="674.61" cy="56.86" r="30.75"/>
      <circle class="cls-48" cx="664.84" cy="52.76" r="30.75"/>
      <circle class="cls-48" cx="654.44" cy="50.58" r="30.76"/>
      <circle class="cls-48" cx="644.34" cy="50.65" r="30.76"/>
      <circle class="cls-40" cx="634.62" cy="52.65" r="30.76"/>
      <circle class="cls-40" cx="625.26" cy="56.32" r="30.77"/>
      <circle class="cls-40" cx="616.43" cy="61.42" r="30.77"/>
      <circle class="cls-40" cx="608.35" cy="67.7" r="30.77"/>
      <circle class="cls-40" cx="601.19" cy="74.9" r="30.78"/>
      <circle class="cls-25" cx="595.15" cy="82.79" r="30.78"/>
      <circle class="cls-25" cx="590.41" cy="91.12" r="30.79"/>
      <circle class="cls-25" cx="587.49" cy="98.48" r="30.79"/>
      <circle class="cls-35" cx="585.51" cy="106.04" r="30.8"/>
      <circle class="cls-35" cx="584.33" cy="114" r="30.8"/>
      <circle class="cls-51" cx="583.92" cy="122.33" r="30.81"/>
      <circle class="cls-51" cx="584.25" cy="130.96" r="30.81"/>
      <circle class="cls-51" cx="585.31" cy="139.82" r="30.82"/>
      <circle class="cls-51" cx="587.09" cy="148.87" r="30.82"/>
      <circle class="cls-17" cx="589.54" cy="158.05" r="30.83"/>
      <circle class="cls-17" cx="592.67" cy="167.29" r="30.83"/>
      <circle class="cls-36" cx="596.44" cy="176.54" r="30.84"/>
      <circle class="cls-36" cx="600.84" cy="185.73" r="30.84"/>
      <circle class="cls-36" cx="605.84" cy="194.82" r="30.85"/>
      <circle class="cls-36" cx="611.43" cy="203.74" r="30.85"/>
      <circle class="cls-36" cx="617.58" cy="212.43" r="30.86"/>
      <circle class="cls-36" cx="624.27" cy="220.84" r="30.87"/>
      <circle class="cls-36" cx="631.48" cy="228.9" r="30.87"/>
      <circle class="cls-50" cx="639.2" cy="236.56" r="30.88"/>
      <circle class="cls-13" cx="647.4" cy="243.76" r="30.89"/>
      <circle class="cls-13" cx="656.06" cy="250.44" r="30.89"/>
      <circle class="cls-13" cx="665.16" cy="256.55" r="30.9"/>
      <circle class="cls-13" cx="674.68" cy="262.01" r="30.91"/>
      <circle class="cls-13" cx="684.59" cy="266.78" r="30.92"/>
      <circle class="cls-13" cx="694.89" cy="270.8" r="30.92"/>
      <circle class="cls-2" cx="705.54" cy="274.01" r="30.93"/>
      <circle class="cls-2" cx="715.2" cy="276.12" r="30.94"/>
      <circle class="cls-19" cx="724.56" cy="277.5" r="30.95"/>
      <circle class="cls-19" cx="734.12" cy="278.28" r="30.95"/>
      <circle class="cls-19" cx="743.81" cy="278.45" r="30.96"/>
      <circle class="cls-19" cx="753.59" cy="278.03" r="30.97"/>
      <circle class="cls-3" cx="763.4" cy="276.99" r="30.98"/>
      <circle class="cls-3" cx="773.19" cy="275.34" r="30.99"/>
      <circle class="cls-3" cx="782.91" cy="273.07" r="30.99"/>
      <circle class="cls-3" cx="792.5" cy="270.18" r="31"/>
      <circle class="cls-27" cx="801.91" cy="266.67" r="31.01"/>
      <circle class="cls-27" cx="811.09" cy="262.52" r="31.02"/>
      <circle class="cls-12" cx="819.99" cy="257.74" r="31.03"/>
      <circle class="cls-12" cx="828.55" cy="252.33" r="31.04"/>
      <circle class="cls-12" cx="836.71" cy="246.27" r="31.05"/>
      <circle class="cls-12" cx="844.44" cy="239.57" r="31.06"/>
      <circle class="cls-12" cx="851.66" cy="232.22" r="31.07"/>
      <circle class="cls-4" cx="858.34" cy="224.21" r="31.08"/>
      <circle class="cls-24" cx="864.77" cy="214.99" r="31.09"/>
      <circle class="cls-24" cx="872.04" cy="201.78" r="31.1"/>
      <circle class="cls-24" cx="877.4" cy="188.59" r="31.11"/>
      <circle class="cls-24" cx="881.09" cy="175.65" r="31.12"/>
      <circle class="cls-24" cx="883.37" cy="163.18" r="31.13"/>
      <circle class="cls-22" cx="884.47" cy="151.43" r="31.14"/>
      <circle class="cls-15" cx="884.66" cy="140.63" r="31.15"/>
      <circle class="cls-15" cx="884.19" cy="130.99" r="31.16"/>
      <circle class="cls-15" cx="883.29" cy="122.77" r="31.17"/>
      <circle class="cls-47" cx="882.23" cy="116.18" r="31.18"/>
      <circle class="cls-1" cx="881.24" cy="111.46" r="31.19"/>
      <circle class="cls-1" cx="880.59" cy="108.84" r="31.2"/>
      <circle class="cls-54" cx="876.53" cy="96.53" r="31.22"/>
      <circle class="cls-54" cx="870.92" cy="84.03" r="31.23"/>
      <circle class="cls-54" cx="864.51" cy="72.93" r="31.24"/>
      <circle class="cls-39" cx="857.6" cy="63.17" r="31.25"/>
      <circle class="cls-39" cx="850.5" cy="54.75" r="31.26"/>
      <circle class="cls-21" cx="843.51" cy="47.61" r="31.27"/>
      <circle class="cls-29" cx="836.93" cy="41.73" r="31.29"/>
      <circle class="cls-34" cx="831.08" cy="37.08" r="31.3"/>
      <circle class="cls-34" cx="826.26" cy="33.62" r="31.31"/>
      <circle class="cls-34" cx="822.78" cy="31.33" r="31.32"/>
    </g>
  </g>
</svg>