<?xml version="1.0" encoding="UTF-8"?>
<svg id="Layer_2" data-name="Layer 2" xmlns="http://www.w3.org/2000/svg" xmlns:xlink="http://www.w3.org/1999/xlink" viewBox="0 0 1080 1080">
  <defs>
    <style>
      .cls-1 {
        fill: none;
      }

      .cls-2 {
        fill: #16323d;
      }

      .cls-3 {
        fill: #d2bfdd;
      }

      .cls-4 {
        clip-path: url(#clippath);
      }
    </style>
    <clipPath id="clippath">
      <rect class="cls-1" width="1080" height="1080"/>
    </clipPath>
  </defs>
  <g id="Capa_1" data-name="Capa 1">
    <g>
      <rect class="cls-3" width="1080" height="1080" rx="70" ry="70"/>
      <g class="cls-4">
        <path class="cls-2" d="M923.13,454.89c-10.73-21.12-30.12-24.42-47.67-11.35-6.14,4.58-9.78,9.56-12.52,17.55l-32.82,95.71-6.4,14.17-6.21,13.79-4.11,8.19-13.26,25.89c-1.75,3.71-3.95,7.78-6.71,12.03-4,6.16-8.19,11.15-11.97,15.08l-12.64,13.5c-2.25,2.4-4.55,4.66-6.95,6.75l-4.82,3.81c-1.72,1.23-3.51,2.37-5.36,3.39-1.24.63-2.55,1.24-3.94,1.81.02.05.03.09.05.14l-8.1,3.62c-10.84,4.85-27.88,4.44-38.72.7-14.02-4.84-25.41-12.94-33.32-25.9-8.1-13.25-7.04-25.77-2.59-42.55l5.35-20.2,4.25-11.48,9.39-35.73,8.68-38.58,4.15-20.7,1.65-16.49,2.5-22.54,1.66-68.72-4.61-45.19-3.5-10.57c-1.54-4.66-2.13-9.45-3.32-14.33l-3.47-14.31-8.37-23.92-7.71-17.81-6.2-12.72c-7.43-15.24-20.82-26.15-35.39-34.1l-15.59-5.99c-24.87-5.58-51.46,3.83-72,22.18-10.01,8.94-19.08,17.93-24.75,30.03l-13.98,29.8-4.42,15.28-6.72,26.18-3.07,17.11c-2.76,15.43-2.56,29.95-2.51,45.09l.05,18.36,1.25,35.75,4.14,38.04,4.98,29.4,3.48,15.54,4.26,17.54,27,80.04,3.7,5.5,8.69,27.03c1.71,11.99,2.57,25.19-2.79,36.73l-16.45,35.4-6.17,10.67-13.59,19.5-10.08,11.85c-7.91,9.31-15.67,17.83-26.21,23.8-28.86,16.35-63.1,13.09-91.07-3.49-32.22-19.1-53.51-52.01-84.81-72.51-22.28-14.59-47.35-24.04-73.04-30.66-14.41-3.72-29.2-7.63-44.04-9.15-13.61-1.39-26.7,1.78-40.15,3.27-12.08,1.34-22.43,5.51-33.58,9.75l-28.96,11.03-9.66,5.74-32.95,21.81-8.17,6.23-17.25,13.49c-10.53,8.23-19.01,17.7-28.11,27.52l-23.84,25.74-10.26,12.75-9.66,14.08c-3.69,5.37-5.72,12.3-7.62,19.05-5.4,19.18,4.1,41.49,21.54,53.08,9.93,6.6,23.33,8.44,33.86,4.79l9.38-3.25c10.1-3.5,16.88-9.78,24.48-16.81,10.01-9.24,19.88-17.92,28.59-28.58,5.07-6.2,11.39-10.48,17.64-15.14l8.26-6.15,23.79-15.16,8.62-5.33,15.64-8.59,18.71-6.67s23.43-4.71,23.44-4.71c58.12-11.67,107.57,24.49,140.31,69.12,14.82,20.2,28.47,47.09,49.84,60.79,35.95,23.05,80.52,17.41,116.94-1.43,32.44-16.78,54.13-43.2,78.05-69.75,3.49-3.87,6.55-8.94,9.17-13.23l8.46-13.82,20.41-32.52,14.08-24.84c2.99-5.27,8.58-12.9,15.6-9.94l15.04,12.05,7.73,4.48,13.06,6.28,22.82,8.91,16.79,3.4,9.78.13,20.85.13c17.22.11,45.45-8.24,61.73-17.83l2.23-1.31c.05.13.09.26.14.39l3.8-2.29,5.8-3.92,5.04-3.35c3.33-2.21,6.38-4.4,9.36-6.72.18-.14,3.08-2.41,6.23-5.16,5.16-4.5,18.49-16.82,25.11-24.11,10.25-11.29,26.23-34.54,41.1-67.1l6.25-13.43,5.44-11.12,23.78-69.55,3.2-13.89,3.18-13.52,6.52-39.16c1.08-5.44,2.04-13.52.83-23.16-1.09-8.69-3.56-15.65-5.69-20.46ZM605.15,517.75c-.56,3.68-2.33,6.85-4.14,9.57-1.72,2.58-5.67,2.62-6.6-.17l-3.95-11.92-2.95-20.86c-3.53-24.98-3.24-50.03-2.92-75.63l.41-32.74,3.71-25.97,4.3-17.99c.52-2.18,2.02-3.89,3.54-4.66,1.48-.75,3.72-.49,5.29.65,3.74,2.7,3.63,7.31,4.26,11.56l4.54,30.63,1.52,32.17.53,14.66-1.93,41.05c-.53,11.26-1.34,21.71-3.06,32.96l-2.55,16.69Z"/>
      </g>
    </g>
  </g>
</svg>